<svg height="auto" viewBox="0 0 2000 1000" xmlns="http://www.w3.org/2000/svg"><path d="M0 992.22c21-5.922 63-11.771 105-29.607 42-17.837 63-46.652 105-59.575 42-12.924 63 11.59 105-5.043s63-58.084 105-78.12c42-20.037 63-12.826 105-22.062 42-9.237 63-11.976 105-24.121 42-12.146 63-10.475 105-36.608 42-26.133 63-69.289 105-94.057 42-24.769 63-12.809 105-29.784 42-16.976 63-23.623 105-55.095 42-31.473 63-84.803 105-102.267 42-17.463 63 25.6 105 14.95 42-10.651 63-71.1 105-68.203 42 2.896 63 66.667 105 82.684 42 16.018 63 9.495 105-2.596s63-55.149 105-57.858c42-2.71 63 28.997 105 44.31 42 15.314 63 96.277 105 32.257 42-64.02 84-281.885 105-352.357l5 850.932H0Z" fill="#444cf71a"/><path d="M0 992.22c21-5.922 63-11.771 105-29.607 42-17.837 63-46.652 105-59.575 42-12.924 63 11.59 105-5.043s63-58.084 105-78.12c42-20.037 63-12.826 105-22.062 42-9.237 63-11.976 105-24.121 42-12.146 63-10.475 105-36.608 42-26.133 63-69.289 105-94.057 42-24.769 63-12.809 105-29.784 42-16.976 63-23.623 105-55.095 42-31.473 63-84.803 105-102.267 42-17.463 63 25.6 105 14.95 42-10.651 63-71.1 105-68.203 42 2.896 63 66.667 105 82.684 42 16.018 63 9.495 105-2.596s63-55.149 105-57.858c42-2.71 63 28.997 105 44.31 42 15.314 63 96.277 105 32.257 42-64.02 84-281.885 105-352.357" fill="none" stroke="#444cf7" stroke-width="4"/><g fill="#444cf7"><circle cy="992.22" r="8"/><circle cx="105" cy="962.613" r="8"/><circle cx="210" cy="903.038" r="8"/><circle cx="315" cy="897.995" r="8"/><circle cx="420" cy="819.874" r="8"/><circle cx="525" cy="797.813" r="8"/><circle cx="630" cy="773.692" r="8"/><circle cx="735" cy="737.084" r="8"/><circle cx="840" cy="643.027" r="8"/><circle cx="945" cy="613.243" r="8"/><circle cx="1050" cy="558.148" r="8"/><circle cx="1155" cy="455.881" r="8"/><circle cx="1260" cy="470.83" r="8"/><circle cx="1365" cy="402.628" r="8"/><circle cx="1470" cy="485.312" r="8"/><circle cx="1575" cy="482.716" r="8"/><circle cx="1680" cy="424.858" r="8"/><circle cx="1785" cy="469.169" r="8"/><circle cx="1890" cy="501.425" r="8"/><circle cx="1995" cy="149.068" r="8"/></g></svg>