<svg height="auto" viewBox="0 0 2000 1000" xmlns="http://www.w3.org/2000/svg"><path d="M0 989.608c21-4.437 63-12.902 105-22.186 42-9.283 63-13.289 105-24.231 42-10.943 63-7.993 105-30.482 42-22.49 63-56.587 105-81.966 42-25.378 63-45.705 105-44.926 42 .778 63 57.32 105 48.819 42-8.502 63-58.781 105-91.329 42-32.547 63-46.654 105-71.408 42-24.753 63-54.837 105-52.36 42 2.477 63 61.679 105 64.746 42 3.067 63 5.728 105-49.41 42-55.137 63-220.153 105-226.275 42-6.123 63 180.263 105 195.664 42 15.4 63-114.797 105-118.66 42-3.863 63 100.477 105 99.345 42-1.132 63-20.14 105-105.005 42-84.866 63-280.51 105-319.324 42-38.813 63 151.376 105 125.257 42-26.12 84-204.682 105-255.852l5 969.975H0Z" fill="#444cf71a"/><path d="M0 989.608c21-4.437 63-12.902 105-22.186 42-9.283 63-13.289 105-24.231 42-10.943 63-7.993 105-30.482 42-22.49 63-56.587 105-81.966 42-25.378 63-45.705 105-44.926 42 .778 63 57.32 105 48.819 42-8.502 63-58.781 105-91.329 42-32.547 63-46.654 105-71.408 42-24.753 63-54.837 105-52.36 42 2.477 63 61.679 105 64.746 42 3.067 63 5.728 105-49.41 42-55.137 63-220.153 105-226.275 42-6.123 63 180.263 105 195.664 42 15.4 63-114.797 105-118.66 42-3.863 63 100.477 105 99.345 42-1.132 63-20.14 105-105.005 42-84.866 63-280.51 105-319.324 42-38.813 63 151.376 105 125.257 42-26.12 84-204.682 105-255.852" fill="none" stroke="#444cf7" stroke-width="4"/><g fill="#444cf7"><circle cy="989.608" r="8"/><circle cx="105" cy="967.422" r="8"/><circle cx="210" cy="943.191" r="8"/><circle cx="315" cy="912.709" r="8"/><circle cx="420" cy="830.743" r="8"/><circle cx="525" cy="785.817" r="8"/><circle cx="630" cy="834.636" r="8"/><circle cx="735" cy="743.307" r="8"/><circle cx="840" cy="671.899" r="8"/><circle cx="945" cy="619.539" r="8"/><circle cx="1050" cy="684.285" r="8"/><circle cx="1155" cy="634.875" r="8"/><circle cx="1260" cy="408.6" r="8"/><circle cx="1365" cy="604.264" r="8"/><circle cx="1470" cy="485.604" r="8"/><circle cx="1575" cy="584.949" r="8"/><circle cx="1680" cy="479.944" r="8"/><circle cx="1785" cy="160.62" r="8"/><circle cx="1890" cy="285.877" r="8"/><circle cx="1995" cy="30.025" r="8"/></g></svg>