<svg height="auto" viewBox="0 0 2000 1000" xmlns="http://www.w3.org/2000/svg"><path d="M0 987.606c21-5.422 63-9.415 105-27.11 42-17.696 63-52.3 105-61.37 42-9.068 63 18.989 105 16.024 42-2.964 63-15.335 105-30.846s63-26.512 105-46.71c42-20.197 63-34.574 105-54.279 42-19.705 63-16.309 105-44.245 42-27.936 63-83.727 105-95.435 42-11.707 63 39.608 105 36.9 42-2.708 63-47.118 105-50.44 42-3.324 63 64.53 105 33.826 42-30.706 63-142.264 105-187.353 42-45.088 63-18.826 105-38.09 42-19.262 63-23.577 105-58.226 42-34.65 63-79.108 105-115.021s63-37.724 105-64.543c42-26.82 63-133.708 105-69.554s63 328.709 105 390.322c42 61.614 84-65.804 105-82.255l5 560.799H0Z" fill="#444cf71a"/><path d="M0 987.606c21-5.422 63-9.415 105-27.11 42-17.696 63-52.3 105-61.37 42-9.068 63 18.989 105 16.024 42-2.964 63-15.335 105-30.846s63-26.512 105-46.71c42-20.197 63-34.574 105-54.279 42-19.705 63-16.309 105-44.245 42-27.936 63-83.727 105-95.435 42-11.707 63 39.608 105 36.9 42-2.708 63-47.118 105-50.44 42-3.324 63 64.53 105 33.826 42-30.706 63-142.264 105-187.353 42-45.088 63-18.826 105-38.09 42-19.262 63-23.577 105-58.226 42-34.65 63-79.108 105-115.021s63-37.724 105-64.543c42-26.82 63-133.708 105-69.554s63 328.709 105 390.322c42 61.614 84-65.804 105-82.255" fill="none" stroke="#444cf7" stroke-width="4"/><g fill="#444cf7"><circle cy="987.606" r="8"/><circle cx="105" cy="960.495" r="8"/><circle cx="210" cy="899.127" r="8"/><circle cx="315" cy="915.15" r="8"/><circle cx="420" cy="884.304" r="8"/><circle cx="525" cy="837.595" r="8"/><circle cx="630" cy="783.315" r="8"/><circle cx="735" cy="739.07" r="8"/><circle cx="840" cy="643.635" r="8"/><circle cx="945" cy="680.535" r="8"/><circle cx="1050" cy="630.094" r="8"/><circle cx="1155" cy="663.921" r="8"/><circle cx="1260" cy="476.568" r="8"/><circle cx="1365" cy="438.479" r="8"/><circle cx="1470" cy="380.252" r="8"/><circle cx="1575" cy="265.231" r="8"/><circle cx="1680" cy="200.688" r="8"/><circle cx="1785" cy="131.134" r="8"/><circle cx="1890" cy="521.456" r="8"/><circle cx="1995" cy="439.201" r="8"/></g></svg>