<svg height="auto" viewBox="0 0 2000 1000" xmlns="http://www.w3.org/2000/svg"><path d="M0 994.978c21-5.915 63-17.809 105-29.579s63-18.357 105-29.269c42-10.911 63-9.06 105-25.289 42-16.227 63-36.68 105-55.85s63-35.033 105-39.998c42-4.965 63 20.037 105 15.174 42-4.864 63-28.028 105-39.491 42-11.463 63-8.66 105-17.825 42-9.164 63 19.722 105-28 42-47.721 63-159.329 105-210.608 42-51.279 63-44.168 105-45.787 42-1.62 63 32.416 105 37.69 42 5.275 63 23.471 105-11.317s63-168.682 105-162.624c42 6.058 63 202.845 105 192.915 42-9.931 63-158.75 105-242.569 42-83.82 63-129.356 105-176.527 42-47.172 63-117.706 105-59.33 42 58.378 84 280.97 105 351.213l5 582.093H0Z" fill="#444cf71a"/><path d="M0 994.978c21-5.915 63-17.809 105-29.579s63-18.357 105-29.269c42-10.911 63-9.06 105-25.289 42-16.227 63-36.68 105-55.85s63-35.033 105-39.998c42-4.965 63 20.037 105 15.174 42-4.864 63-28.028 105-39.491 42-11.463 63-8.66 105-17.825 42-9.164 63 19.722 105-28 42-47.721 63-159.329 105-210.608 42-51.279 63-44.168 105-45.787 42-1.62 63 32.416 105 37.69 42 5.275 63 23.471 105-11.317s63-168.682 105-162.624c42 6.058 63 202.845 105 192.915 42-9.931 63-158.75 105-242.569 42-83.82 63-129.356 105-176.527 42-47.172 63-117.706 105-59.33 42 58.378 84 280.97 105 351.213" fill="none" stroke="#444cf7" stroke-width="4"/><g fill="#444cf7"><circle cy="994.978" r="8"/><circle cx="105" cy="965.399" r="8"/><circle cx="210" cy="936.13" r="8"/><circle cx="315" cy="910.841" r="8"/><circle cx="420" cy="854.992" r="8"/><circle cx="525" cy="814.993" r="8"/><circle cx="630" cy="830.167" r="8"/><circle cx="735" cy="790.676" r="8"/><circle cx="840" cy="772.851" r="8"/><circle cx="945" cy="744.852" r="8"/><circle cx="1050" cy="534.243" r="8"/><circle cx="1155" cy="488.456" r="8"/><circle cx="1260" cy="526.146" r="8"/><circle cx="1365" cy="514.829" r="8"/><circle cx="1470" cy="352.205" r="8"/><circle cx="1575" cy="545.12" r="8"/><circle cx="1680" cy="302.551" r="8"/><circle cx="1785" cy="126.024" r="8"/><circle cx="1890" cy="66.695" r="8"/><circle cx="1995" cy="417.907" r="8"/></g></svg>