<svg height="auto" viewBox="0 0 2000 1000" xmlns="http://www.w3.org/2000/svg"><path d="M0 989.726c21-7.343 63-26.105 105-36.717 42-10.612 63 3.184 105-16.342 42-19.527 63-68.962 105-81.29 42-12.328 63 18.621 105 19.65 42 1.03 63 3.708 105-14.504s63-41.453 105-76.557 63-67.929 105-98.964c42-31.036 63-48.551 105-56.213 42-7.661 63 18.55 105 17.905 42-.646 63 6.547 105-21.134s63-118.419 105-117.27c42 1.148 63 160.596 105 123.012s63-273.501 105-310.933c42-37.432 63 80.726 105 123.775 42 43.05 63 87.248 105 91.471 42 4.223 63-22.199 105-70.356 42-48.158 63-133.52 105-170.432 42-36.911 63 25.54 105-14.123 42-39.664 84-147.355 105-184.194l5 903.49H0Z" fill="#444cf71a"/><path d="M0 989.726c21-7.343 63-26.105 105-36.717 42-10.612 63 3.184 105-16.342 42-19.527 63-68.962 105-81.29 42-12.328 63 18.621 105 19.65 42 1.03 63 3.708 105-14.504s63-41.453 105-76.557 63-67.929 105-98.964c42-31.036 63-48.551 105-56.213 42-7.661 63 18.55 105 17.905 42-.646 63 6.547 105-21.134s63-118.419 105-117.27c42 1.148 63 160.596 105 123.012s63-273.501 105-310.933c42-37.432 63 80.726 105 123.775 42 43.05 63 87.248 105 91.471 42 4.223 63-22.199 105-70.356 42-48.158 63-133.52 105-170.432 42-36.911 63 25.54 105-14.123 42-39.664 84-147.355 105-184.194" fill="none" stroke="#444cf7" stroke-width="4"/><g fill="#444cf7"><circle cy="989.726" r="8"/><circle cx="105" cy="953.009" r="8"/><circle cx="210" cy="936.667" r="8"/><circle cx="315" cy="855.377" r="8"/><circle cx="420" cy="875.028" r="8"/><circle cx="525" cy="860.523" r="8"/><circle cx="630" cy="783.966" r="8"/><circle cx="735" cy="685.002" r="8"/><circle cx="840" cy="628.789" r="8"/><circle cx="945" cy="646.694" r="8"/><circle cx="1050" cy="625.56" r="8"/><circle cx="1155" cy="508.29" r="8"/><circle cx="1260" cy="631.302" r="8"/><circle cx="1365" cy="320.369" r="8"/><circle cx="1470" cy="444.144" r="8"/><circle cx="1575" cy="535.615" r="8"/><circle cx="1680" cy="465.259" r="8"/><circle cx="1785" cy="294.827" r="8"/><circle cx="1890" cy="280.704" r="8"/><circle cx="1995" cy="96.51" r="8"/></g></svg>