<svg height="auto" viewBox="0 0 2000 1000" xmlns="http://www.w3.org/2000/svg"><path d="M0 998.419c21-7.802 63-22.511 105-39.01s63-21.392 105-43.484c42-22.093 63-43.668 105-66.978 42-23.31 63-39.449 105-49.574s63 5.991 105-1.051c42-7.043 63-16.383 105-34.162 42-17.78 63-58.317 105-54.736 42 3.582 63 81.207 105 72.644 42-8.562 63-70.266 105-115.457 42-45.192 63-108.33 105-110.5 42-2.17 63 79.442 105 99.654 42 20.212 63 45.61 105 1.405s63-170.24 105-222.428c42-52.188 63-.196 105-38.514 42-38.319 63-158.27 105-153.078 42 5.192 63 141.007 105 179.037s63 40.038 105 11.112c42-28.926 63-80.355 105-155.741 42-75.386 84-176.951 105-221.189l5 943.631H0Z" fill="#444cf71a"/><path d="M0 998.419c21-7.802 63-22.511 105-39.01s63-21.392 105-43.484c42-22.093 63-43.668 105-66.978 42-23.31 63-39.449 105-49.574s63 5.991 105-1.051c42-7.043 63-16.383 105-34.162 42-17.78 63-58.317 105-54.736 42 3.582 63 81.207 105 72.644 42-8.562 63-70.266 105-115.457 42-45.192 63-108.33 105-110.5 42-2.17 63 79.442 105 99.654 42 20.212 63 45.61 105 1.405s63-170.24 105-222.428c42-52.188 63-.196 105-38.514 42-38.319 63-158.27 105-153.078 42 5.192 63 141.007 105 179.037s63 40.038 105 11.112c42-28.926 63-80.355 105-155.741 42-75.386 84-176.951 105-221.189" fill="none" stroke="#444cf7" stroke-width="4"/><g fill="#444cf7"><circle cy="998.419" r="8"/><circle cx="105" cy="959.409" r="8"/><circle cx="210" cy="915.925" r="8"/><circle cx="315" cy="848.947" r="8"/><circle cx="420" cy="799.373" r="8"/><circle cx="525" cy="798.322" r="8"/><circle cx="630" cy="764.16" r="8"/><circle cx="735" cy="709.424" r="8"/><circle cx="840" cy="782.068" r="8"/><circle cx="945" cy="666.611" r="8"/><circle cx="1050" cy="556.111" r="8"/><circle cx="1155" cy="655.765" r="8"/><circle cx="1260" cy="657.17" r="8"/><circle cx="1365" cy="434.742" r="8"/><circle cx="1470" cy="396.228" r="8"/><circle cx="1575" cy="243.15" r="8"/><circle cx="1680" cy="422.187" r="8"/><circle cx="1785" cy="433.299" r="8"/><circle cx="1890" cy="277.558" r="8"/><circle cx="1995" cy="56.369" r="8"/></g></svg>